<svg width="1054" height="453" viewBox="0 0 1054 453" fill="none" xmlns="http://www.w3.org/2000/svg">
<rect x="0.5" y="0.5" width="34" height="33" transform="matrix(4.37114e-08 1 1 -4.37114e-08 752.266 -2.18557e-08)" fill="#D9D9D9" stroke="black"/>
<rect x="0.5" y="0.5" width="34" height="33" transform="matrix(4.37114e-08 1 1 -4.37114e-08 790.428 -2.18557e-08)" fill="#D9D9D9" stroke="black"/>
<rect x="0.5" y="0.5" width="34" height="33" transform="matrix(4.37114e-08 1 1 -4.37114e-08 828.59 -2.18557e-08)" fill="#00E73A" stroke="black"/>
<rect x="0.5" y="0.5" width="34" height="34" transform="matrix(4.37114e-08 1 1 -4.37114e-08 866.752 -2.18557e-08)" fill="#00E73A" stroke="black"/>
<rect x="0.5" y="0.5" width="34" height="33" transform="matrix(4.37114e-08 1 1 -4.37114e-08 752.266 38)" fill="#D9D9D9" stroke="black"/>
<rect x="0.5" y="0.5" width="34" height="33" transform="matrix(4.37114e-08 1 1 -4.37114e-08 790.428 38)" fill="#00E73A" stroke="black"/>
<rect x="0.5" y="0.5" width="34" height="33" transform="matrix(4.37114e-08 1 1 -4.37114e-08 828.59 38)" fill="#D9D9D9" stroke="black"/>
<rect x="0.5" y="0.5" width="34" height="34" transform="matrix(4.37114e-08 1 1 -4.37114e-08 866.752 38)" fill="#D9D9D9" stroke="black"/>
<rect x="0.5" y="0.5" width="34" height="34" transform="matrix(4.37114e-08 1 1 -4.37114e-08 904.914 38)" fill="#00E73A" stroke="black"/>
<rect x="0.5" y="0.5" width="34" height="34" transform="matrix(4.37114e-08 1 1 -4.37114e-08 943.076 38)" fill="#D9D9D9" stroke="black"/>
<rect x="0.5" y="0.5" width="34" height="33" transform="matrix(4.37114e-08 1 1 -4.37114e-08 752.266 76)" fill="#00E73A" stroke="black"/>
<rect x="0.5" y="0.5" width="34" height="33" transform="matrix(4.37114e-08 1 1 -4.37114e-08 790.428 76)" fill="#D9D9D9" stroke="black"/>
<rect x="0.5" y="0.5" width="34" height="33" transform="matrix(4.37114e-08 1 1 -4.37114e-08 828.59 76)" fill="#D9D9D9" stroke="black"/>
<rect x="0.5" y="0.5" width="34" height="34" transform="matrix(4.37114e-08 1 1 -4.37114e-08 866.752 76)" fill="#D9D9D9" stroke="black"/>
<rect x="0.5" y="0.5" width="34" height="34" transform="matrix(4.37114e-08 1 1 -4.37114e-08 904.914 76)" fill="#D9D9D9" stroke="black"/>
<rect x="0.5" y="0.5" width="34" height="34" transform="matrix(4.37114e-08 1 1 -4.37114e-08 943.076 76)" fill="#00E73A" stroke="black"/>
<rect x="0.5" y="0.5" width="34" height="34" transform="matrix(4.37114e-08 1 1 -4.37114e-08 981.238 76)" fill="#D9D9D9" stroke="black"/>
<rect x="0.5" y="0.5" width="34" height="33" transform="matrix(4.37114e-08 1 1 -4.37114e-08 1019.4 76)" fill="#D9D9D9" stroke="black"/>
<rect x="0.5" y="0.5" width="33" height="33" transform="matrix(4.37114e-08 1 1 -4.37114e-08 752.266 114)" fill="#00E73A" stroke="black"/>
<rect x="0.5" y="0.5" width="33" height="33" transform="matrix(4.37114e-08 1 1 -4.37114e-08 790.428 114)" fill="#D9D9D9" stroke="black"/>
<rect x="0.5" y="0.5" width="33" height="33" transform="matrix(4.37114e-08 1 1 -4.37114e-08 828.59 114)" fill="#D9D9D9" stroke="black"/>
<rect x="0.5" y="0.5" width="33" height="34" transform="matrix(4.37114e-08 1 1 -4.37114e-08 866.752 114)" fill="#D9D9D9" stroke="black"/>
<rect x="0.5" y="0.5" width="33" height="34" transform="matrix(4.37114e-08 1 1 -4.37114e-08 904.914 114)" fill="#D9D9D9" stroke="black"/>
<rect x="0.5" y="0.5" width="33" height="34" transform="matrix(4.37114e-08 1 1 -4.37114e-08 943.076 114)" fill="#00E73A" stroke="black"/>
<rect x="0.5" y="0.5" width="33" height="34" transform="matrix(4.37114e-08 1 1 -4.37114e-08 981.238 114)" fill="#D9D9D9" stroke="black"/>
<rect x="0.5" y="0.5" width="33" height="33" transform="matrix(4.37114e-08 1 1 -4.37114e-08 1019.4 114)" fill="#D9D9D9" stroke="black"/>
<rect x="0.5" y="0.5" width="33" height="33" transform="matrix(4.37114e-08 1 1 -4.37114e-08 752.266 152)" fill="#00E73A" stroke="black"/>
<rect x="0.5" y="0.5" width="33" height="33" transform="matrix(4.37114e-08 1 1 -4.37114e-08 790.428 152)" fill="#D9D9D9" stroke="black"/>
<rect x="829.09" y="152.5" width="33.4585" height="33.4585" fill="#AEAEB2" stroke="black"/>
<path d="M845.819 167.237L853.859 159.197L855.852 161.189L847.82 169.221L847.812 169.23L855.852 177.27L853.859 179.262L845.819 171.222L845.811 171.231L837.778 179.262L835.786 177.27L843.826 169.23L835.785 161.189L837.778 159.196L845.819 167.237Z" fill="black" stroke="black" stroke-width="0.025"/>
<rect x="0.5" y="0.5" width="33" height="34" transform="matrix(4.37114e-08 1 1 -4.37114e-08 866.752 152)" fill="#D9D9D9" stroke="black"/>
<rect x="0.5" y="0.5" width="33" height="34" transform="matrix(4.37114e-08 1 1 -4.37114e-08 904.914 152)" fill="#D9D9D9" stroke="black"/>
<rect x="0.5" y="0.5" width="33" height="34" transform="matrix(4.37114e-08 1 1 -4.37114e-08 943.076 152)" fill="#00E73A" stroke="black"/>
<rect x="0.5" y="0.5" width="33" height="34" transform="matrix(4.37114e-08 1 1 -4.37114e-08 981.238 152)" fill="#D9D9D9" stroke="black"/>
<rect x="0.5" y="0.5" width="33" height="33" transform="matrix(4.37114e-08 1 1 -4.37114e-08 1019.4 152)" fill="#D9D9D9" stroke="black"/>
<rect x="0.5" y="0.5" width="33" height="33" transform="matrix(4.37114e-08 1 1 -4.37114e-08 752.266 190)" fill="#00E73A" stroke="black"/>
<rect x="0.5" y="0.5" width="33" height="33" transform="matrix(4.37114e-08 1 1 -4.37114e-08 790.428 190)" fill="#D9D9D9" stroke="black"/>
<rect x="0.5" y="0.5" width="33" height="33" transform="matrix(4.37114e-08 1 1 -4.37114e-08 828.59 190)" fill="#D9D9D9" stroke="black"/>
<rect x="0.5" y="0.5" width="33" height="34" transform="matrix(4.37114e-08 1 1 -4.37114e-08 866.752 190)" fill="#D9D9D9" stroke="black"/>
<rect x="0.5" y="0.5" width="33" height="34" transform="matrix(4.37114e-08 1 1 -4.37114e-08 904.914 190)" fill="#D9D9D9" stroke="black"/>
<rect x="0.5" y="0.5" width="33" height="34" transform="matrix(4.37114e-08 1 1 -4.37114e-08 943.076 190)" fill="#00E73A" stroke="black"/>
<rect x="0.5" y="0.5" width="33" height="34" transform="matrix(4.37114e-08 1 1 -4.37114e-08 981.238 190)" fill="#D9D9D9" stroke="black"/>
<rect x="0.5" y="0.5" width="33" height="33" transform="matrix(4.37114e-08 1 1 -4.37114e-08 1019.4 190)" fill="#D9D9D9" stroke="black"/>
<rect x="0.5" y="0.5" width="33" height="33" transform="matrix(4.37114e-08 1 1 -4.37114e-08 752.266 228)" fill="#00E73A" stroke="black"/>
<rect x="0.5" y="0.5" width="33" height="33" transform="matrix(4.37114e-08 1 1 -4.37114e-08 790.428 228)" fill="#D9D9D9" stroke="black"/>
<rect x="0.5" y="0.5" width="33" height="33" transform="matrix(4.37114e-08 1 1 -4.37114e-08 828.59 228)" fill="#D9D9D9" stroke="black"/>
<rect x="0.5" y="0.5" width="33" height="34" transform="matrix(4.37114e-08 1 1 -4.37114e-08 866.752 228)" fill="#D9D9D9" stroke="black"/>
<rect x="0.5" y="0.5" width="33" height="34" transform="matrix(4.37114e-08 1 1 -4.37114e-08 904.914 228)" fill="#D9D9D9" stroke="black"/>
<rect x="0.5" y="0.5" width="33" height="34" transform="matrix(4.37114e-08 1 1 -4.37114e-08 943.076 228)" fill="#00E73A" stroke="black"/>
<rect x="0.5" y="0.5" width="33" height="34" transform="matrix(4.37114e-08 1 1 -4.37114e-08 981.238 228)" fill="#D9D9D9" stroke="black"/>
<rect x="0.5" y="0.5" width="33" height="33" transform="matrix(4.37114e-08 1 1 -4.37114e-08 1019.4 228)" fill="#D9D9D9" stroke="black"/>
<rect x="0.5" y="0.5" width="33" height="33" transform="matrix(4.37114e-08 1 1 -4.37114e-08 752.266 266)" fill="#00E73A" stroke="black"/>
<rect x="0.5" y="0.5" width="33" height="33" transform="matrix(4.37114e-08 1 1 -4.37114e-08 790.428 266)" fill="#D9D9D9" stroke="black"/>
<rect x="0.5" y="0.5" width="33" height="33" transform="matrix(4.37114e-08 1 1 -4.37114e-08 828.59 266)" fill="#D9D9D9" stroke="black"/>
<rect x="0.5" y="0.5" width="33" height="34" transform="matrix(4.37114e-08 1 1 -4.37114e-08 866.752 266)" fill="#D9D9D9" stroke="black"/>
<rect x="0.5" y="0.5" width="33" height="34" transform="matrix(4.37114e-08 1 1 -4.37114e-08 904.914 266)" fill="#D9D9D9" stroke="black"/>
<rect x="0.5" y="0.5" width="33" height="34" transform="matrix(4.37114e-08 1 1 -4.37114e-08 943.076 266)" fill="#00E73A" stroke="black"/>
<rect x="0.5" y="0.5" width="33" height="34" transform="matrix(4.37114e-08 1 1 -4.37114e-08 981.238 266)" fill="#D9D9D9" stroke="black"/>
<rect x="0.5" y="0.5" width="33" height="33" transform="matrix(4.37114e-08 1 1 -4.37114e-08 1019.4 266)" fill="#D9D9D9" stroke="black"/>
<rect x="0.5" y="0.5" width="33" height="33" transform="matrix(4.37114e-08 1 1 -4.37114e-08 752.266 304)" fill="#D9D9D9" stroke="black"/>
<rect x="0.5" y="0.5" width="33" height="33" transform="matrix(4.37114e-08 1 1 -4.37114e-08 790.428 304)" fill="#00E73A" stroke="black"/>
<rect x="0.5" y="0.5" width="33" height="33" transform="matrix(4.37114e-08 1 1 -4.37114e-08 828.59 304)" fill="#D9D9D9" stroke="black"/>
<rect x="0.5" y="0.5" width="33" height="34" transform="matrix(4.37114e-08 1 1 -4.37114e-08 866.752 304)" fill="#D9D9D9" stroke="black"/>
<rect x="0.5" y="0.5" width="33" height="34" transform="matrix(4.37114e-08 1 1 -4.37114e-08 904.914 304)" fill="#00E73A" stroke="black"/>
<rect x="0.5" y="0.5" width="33" height="34" transform="matrix(4.37114e-08 1 1 -4.37114e-08 943.076 304)" fill="#D9D9D9" stroke="black"/>
<rect x="981.738" y="304.5" width="33.4585" height="33.4585" fill="#AEAEB2" stroke="black"/>
<path d="M998.467 319.237L1006.51 311.197L1008.5 313.189L1000.47 321.221L1000.46 321.23L1008.5 329.27L1006.51 331.262L998.467 323.222L998.458 323.231L990.426 331.262L988.434 329.27L996.474 321.23L988.433 313.189L990.426 311.196L998.467 319.237Z" fill="black" stroke="black" stroke-width="0.025"/>
<rect x="1019.9" y="304.5" width="33.4585" height="33.4585" fill="#AEAEB2" stroke="black"/>
<path d="M1036.63 319.237L1044.67 311.197L1046.66 313.189L1038.63 321.221L1038.62 321.23L1046.66 329.27L1044.67 331.262L1036.63 323.222L1036.62 323.231L1028.59 331.262L1026.6 329.27L1034.64 321.23L1026.6 313.189L1028.59 311.196L1036.63 319.237Z" fill="black" stroke="black" stroke-width="0.025"/>
<rect x="0.5" y="0.5" width="34" height="33" transform="matrix(4.37114e-08 1 1 -4.37114e-08 752.266 342)" fill="#D9D9D9" stroke="black"/>
<rect x="0.5" y="0.5" width="34" height="33" transform="matrix(4.37114e-08 1 1 -4.37114e-08 790.428 342)" fill="#D9D9D9" stroke="black"/>
<rect x="0.5" y="0.5" width="34" height="33" transform="matrix(4.37114e-08 1 1 -4.37114e-08 828.59 342)" fill="#00E73A" stroke="black"/>
<rect x="0.5" y="0.5" width="34" height="34" transform="matrix(4.37114e-08 1 1 -4.37114e-08 866.752 342)" fill="#00E73A" stroke="black"/>
<rect x="905.414" y="342.5" width="33.4585" height="33.4585" fill="#AEAEB2" stroke="black"/>
<path d="M922.144 357.237L930.184 349.197L932.176 351.189L924.145 359.221L924.136 359.23L932.176 367.27L930.184 369.262L922.144 361.222L922.135 361.231L914.103 369.262L912.11 367.27L920.15 359.23L912.109 351.189L914.103 349.196L922.144 357.237Z" fill="black" stroke="black" stroke-width="0.025"/>
<rect x="0.5" y="0.5" width="34" height="34" transform="matrix(4.37114e-08 1 1 -4.37114e-08 943.076 342)" fill="#D9D9D9" stroke="black"/>
<rect x="0.5" y="0.5" width="34" height="34" transform="matrix(4.37114e-08 1 1 -4.37114e-08 981.238 342)" fill="#D9D9D9" stroke="black"/>
<rect x="1019.9" y="342.5" width="33.4585" height="33.4585" fill="#AEAEB2" stroke="black"/>
<path d="M1036.63 357.237L1044.67 349.197L1046.66 351.189L1038.63 359.221L1038.62 359.23L1046.66 367.27L1044.67 369.262L1036.63 361.222L1036.62 361.231L1028.59 369.262L1026.6 367.27L1034.64 359.23L1026.6 351.189L1028.59 349.196L1036.63 357.237Z" fill="black" stroke="black" stroke-width="0.025"/>
<rect x="0.5" y="0.5" width="34" height="33" transform="matrix(4.37114e-08 1 1 -4.37114e-08 752.266 380)" fill="#D9D9D9" stroke="black"/>
<rect x="0.5" y="0.5" width="34" height="33" transform="matrix(4.37114e-08 1 1 -4.37114e-08 790.428 380)" fill="#D9D9D9" stroke="black"/>
<rect x="0.5" y="0.5" width="34" height="33" transform="matrix(4.37114e-08 1 1 -4.37114e-08 828.59 380)" fill="#D9D9D9" stroke="black"/>
<rect x="0.5" y="0.5" width="34" height="34" transform="matrix(4.37114e-08 1 1 -4.37114e-08 866.752 380)" fill="#D9D9D9" stroke="black"/>
<rect x="0.5" y="0.5" width="34" height="34" transform="matrix(4.37114e-08 1 1 -4.37114e-08 904.914 380)" fill="#D9D9D9" stroke="black"/>
<rect x="0.5" y="0.5" width="34" height="34" transform="matrix(4.37114e-08 1 1 -4.37114e-08 943.076 380)" fill="#D9D9D9" stroke="black"/>
<rect x="0.5" y="0.5" width="34" height="34" transform="matrix(4.37114e-08 1 1 -4.37114e-08 981.238 380)" fill="#D9D9D9" stroke="black"/>
<rect x="0.5" y="0.5" width="34" height="33" transform="matrix(4.37114e-08 1 1 -4.37114e-08 1019.4 380)" fill="#D9D9D9" stroke="black"/>
<rect x="752.766" y="418.5" width="33.4585" height="33.4585" fill="#AEAEB2" stroke="black"/>
<path d="M769.495 433.236L777.535 425.196L779.527 427.188L771.496 435.221L771.487 435.229L779.527 443.27L777.535 445.262L769.495 437.222L769.486 437.23L761.454 445.262L759.461 443.27L767.501 435.229L759.46 427.188L761.454 425.195L769.495 433.236Z" fill="black" stroke="black" stroke-width="0.025"/>
<rect x="790.928" y="418.5" width="33.4585" height="33.4585" fill="#AEAEB2" stroke="black"/>
<path d="M807.657 433.236L815.697 425.196L817.689 427.188L809.658 435.221L809.649 435.229L817.689 443.27L815.697 445.262L807.657 437.222L807.648 437.23L799.616 445.262L797.624 443.27L805.664 435.229L797.623 427.188L799.616 425.195L807.657 433.236Z" fill="black" stroke="black" stroke-width="0.025"/>
<rect x="829.09" y="418.5" width="33.4585" height="33.4585" fill="#AEAEB2" stroke="black"/>
<path d="M845.819 433.236L853.859 425.196L855.852 427.188L847.82 435.221L847.812 435.229L855.852 443.27L853.859 445.262L845.819 437.222L845.811 437.23L837.778 445.262L835.786 443.27L843.826 435.229L835.785 427.188L837.778 425.195L845.819 433.236Z" fill="black" stroke="black" stroke-width="0.025"/>
<rect x="867.252" y="418.5" width="33.4585" height="33.4585" fill="#AEAEB2" stroke="black"/>
<path d="M883.981 433.236L892.021 425.196L894.014 427.188L885.982 435.221L885.974 435.229L894.014 443.27L892.021 445.262L883.981 437.222L883.973 437.23L875.94 445.262L873.948 443.27L881.988 435.229L873.947 427.188L875.94 425.195L883.981 433.236Z" fill="black" stroke="black" stroke-width="0.025"/>
<rect x="905.414" y="418.5" width="33.4585" height="33.4585" fill="#AEAEB2" stroke="black"/>
<path d="M922.144 433.236L930.184 425.196L932.176 427.188L924.145 435.221L924.136 435.229L932.176 443.27L930.184 445.262L922.144 437.222L922.135 437.23L914.103 445.262L912.11 443.27L920.15 435.229L912.109 427.188L914.103 425.195L922.144 433.236Z" fill="black" stroke="black" stroke-width="0.025"/>
<rect x="0.5" y="0.5" width="34" height="34" transform="matrix(4.37114e-08 1 1 -4.37114e-08 943.076 418)" fill="#D9D9D9" stroke="black"/>
<rect x="0.5" y="0.5" width="34" height="34" transform="matrix(4.37114e-08 1 1 -4.37114e-08 981.238 418)" fill="#D9D9D9" stroke="black"/>
<rect x="0.5" y="0.5" width="34" height="33" transform="matrix(4.37114e-08 1 1 -4.37114e-08 1019.4 418)" fill="#D9D9D9" stroke="black"/>
<rect x="436.75" y="0.5" width="34" height="34" transform="rotate(90 436.75 0.5)" fill="#D9D9D9" stroke="black"/>
<rect x="474.752" y="0.5" width="34" height="34" transform="rotate(90 474.752 0.5)" fill="#D9D9D9" stroke="black"/>
<rect x="511.754" y="0.5" width="34" height="33" transform="rotate(90 511.754 0.5)" fill="#D9D9D9" stroke="black"/>
<rect x="549.756" y="0.5" width="34" height="33" transform="rotate(90 549.756 0.5)" fill="#00E73A" stroke="black"/>
<rect x="587.758" y="0.5" width="34" height="33" transform="rotate(90 587.758 0.5)" fill="#00E73A" stroke="black"/>
<rect x="625.76" y="0.5" width="34" height="33" transform="rotate(90 625.76 0.5)" fill="#D9D9D9" stroke="black"/>
<rect x="663.762" y="0.5" width="34" height="33" transform="rotate(90 663.762 0.5)" fill="#D9D9D9" stroke="black"/>
<rect x="701.764" y="0.5" width="34" height="33" transform="rotate(90 701.764 0.5)" fill="#D9D9D9" stroke="black"/>
<rect x="436.75" y="38.5" width="34" height="34" transform="rotate(90 436.75 38.5)" fill="#D9D9D9" stroke="black"/>
<rect x="474.752" y="38.5" width="34" height="34" transform="rotate(90 474.752 38.5)" fill="#D9D9D9" stroke="black"/>
<rect x="511.754" y="38.5" width="34" height="33" transform="rotate(90 511.754 38.5)" fill="#00E73A" stroke="black"/>
<rect x="549.756" y="38.5" width="34" height="33" transform="rotate(90 549.756 38.5)" fill="#D9D9D9" stroke="black"/>
<rect x="587.758" y="38.5" width="34" height="33" transform="rotate(90 587.758 38.5)" fill="#D9D9D9" stroke="black"/>
<rect x="625.76" y="38.5" width="34" height="33" transform="rotate(90 625.76 38.5)" fill="#00E73A" stroke="black"/>
<rect x="663.762" y="38.5" width="34" height="33" transform="rotate(90 663.762 38.5)" fill="#D9D9D9" stroke="black"/>
<rect x="701.764" y="38.5" width="34" height="33" transform="rotate(90 701.764 38.5)" fill="#D9D9D9" stroke="black"/>
<rect x="402.75" y="76.5" width="33.4585" height="33.4585" fill="#AEAEB2" stroke="black"/>
<path d="M419.479 91.2366L427.52 83.1965L429.512 85.1887L421.48 93.2209L421.472 93.2297L429.512 101.27L427.52 103.262L419.479 95.2219L419.471 95.2307L411.438 103.262L409.446 101.27L417.486 93.2297L409.445 85.1887L411.438 83.1956L419.479 91.2366Z" fill="black" stroke="black" stroke-width="0.025"/>
<rect x="474.752" y="76.5" width="34" height="34" transform="rotate(90 474.752 76.5)" fill="#00E73A" stroke="black"/>
<rect x="478.754" y="76.5" width="33.4585" height="33.4585" fill="#AEAEB2" stroke="black"/>
<path d="M495.483 91.2366L503.523 83.1965L505.515 85.1887L497.484 93.2209L497.475 93.2297L505.515 101.27L503.523 103.262L495.483 95.2219L495.474 95.2307L487.442 103.262L485.45 101.27L493.49 93.2297L485.449 85.1887L487.442 83.1956L495.483 91.2366Z" fill="black" stroke="black" stroke-width="0.025"/>
<rect x="549.756" y="76.5" width="34" height="33" transform="rotate(90 549.756 76.5)" fill="#D9D9D9" stroke="black"/>
<rect x="587.758" y="76.5" width="34" height="33" transform="rotate(90 587.758 76.5)" fill="#D9D9D9" stroke="black"/>
<rect x="625.76" y="76.5" width="34" height="33" transform="rotate(90 625.76 76.5)" fill="#D9D9D9" stroke="black"/>
<rect x="663.762" y="76.5" width="34" height="33" transform="rotate(90 663.762 76.5)" fill="#00E73A" stroke="black"/>
<rect x="701.764" y="76.5" width="34" height="33" transform="rotate(90 701.764 76.5)" fill="#D9D9D9" stroke="black"/>
<rect x="436.75" y="114.5" width="33" height="34" transform="rotate(90 436.75 114.5)" fill="#D9D9D9" stroke="black"/>
<rect x="474.752" y="114.5" width="33" height="34" transform="rotate(90 474.752 114.5)" fill="#00E73A" stroke="black"/>
<rect x="511.754" y="114.5" width="33" height="33" transform="rotate(90 511.754 114.5)" fill="#D9D9D9" stroke="black"/>
<rect x="549.756" y="114.5" width="33" height="33" transform="rotate(90 549.756 114.5)" fill="#D9D9D9" stroke="black"/>
<rect x="587.758" y="114.5" width="33" height="33" transform="rotate(90 587.758 114.5)" fill="#D9D9D9" stroke="black"/>
<rect x="625.76" y="114.5" width="33" height="33" transform="rotate(90 625.76 114.5)" fill="#D9D9D9" stroke="black"/>
<rect x="663.762" y="114.5" width="33" height="33" transform="rotate(90 663.762 114.5)" fill="#00E73A" stroke="black"/>
<rect x="701.764" y="114.5" width="33" height="33" transform="rotate(90 701.764 114.5)" fill="#D9D9D9" stroke="black"/>
<rect x="436.75" y="152.5" width="33" height="34" transform="rotate(90 436.75 152.5)" fill="#D9D9D9" stroke="black"/>
<rect x="474.752" y="152.5" width="33" height="34" transform="rotate(90 474.752 152.5)" fill="#00E73A" stroke="black"/>
<rect x="511.754" y="152.5" width="33" height="33" transform="rotate(90 511.754 152.5)" fill="#D9D9D9" stroke="black"/>
<rect x="549.756" y="152.5" width="33" height="33" transform="rotate(90 549.756 152.5)" fill="#D9D9D9" stroke="black"/>
<rect x="587.758" y="152.5" width="33" height="33" transform="rotate(90 587.758 152.5)" fill="#D9D9D9" stroke="black"/>
<rect x="625.76" y="152.5" width="33" height="33" transform="rotate(90 625.76 152.5)" fill="#D9D9D9" stroke="black"/>
<rect x="663.762" y="152.5" width="33" height="33" transform="rotate(90 663.762 152.5)" fill="#00E73A" stroke="black"/>
<rect x="701.764" y="152.5" width="33" height="33" transform="rotate(90 701.764 152.5)" fill="#D9D9D9" stroke="black"/>
<rect x="436.75" y="190.5" width="33" height="34" transform="rotate(90 436.75 190.5)" fill="#D9D9D9" stroke="black"/>
<rect x="474.752" y="190.5" width="33" height="34" transform="rotate(90 474.752 190.5)" fill="#00E73A" stroke="black"/>
<rect x="511.754" y="190.5" width="33" height="33" transform="rotate(90 511.754 190.5)" fill="#D9D9D9" stroke="black"/>
<rect x="549.756" y="190.5" width="33" height="33" transform="rotate(90 549.756 190.5)" fill="#D9D9D9" stroke="black"/>
<rect x="587.758" y="190.5" width="33" height="33" transform="rotate(90 587.758 190.5)" fill="#D9D9D9" stroke="black"/>
<rect x="625.76" y="190.5" width="33" height="33" transform="rotate(90 625.76 190.5)" fill="#D9D9D9" stroke="black"/>
<rect x="663.762" y="190.5" width="33" height="33" transform="rotate(90 663.762 190.5)" fill="#00E73A" stroke="black"/>
<rect x="701.764" y="190.5" width="33" height="33" transform="rotate(90 701.764 190.5)" fill="#D9D9D9" stroke="black"/>
<rect x="436.75" y="228.5" width="33" height="34" transform="rotate(90 436.75 228.5)" fill="#D9D9D9" stroke="black"/>
<rect x="474.752" y="228.5" width="33" height="34" transform="rotate(90 474.752 228.5)" fill="#00E73A" stroke="black"/>
<rect x="511.754" y="228.5" width="33" height="33" transform="rotate(90 511.754 228.5)" fill="#D9D9D9" stroke="black"/>
<rect x="549.756" y="228.5" width="33" height="33" transform="rotate(90 549.756 228.5)" fill="#D9D9D9" stroke="black"/>
<rect x="587.758" y="228.5" width="33" height="33" transform="rotate(90 587.758 228.5)" fill="#D9D9D9" stroke="black"/>
<rect x="625.76" y="228.5" width="33" height="33" transform="rotate(90 625.76 228.5)" fill="#D9D9D9" stroke="black"/>
<rect x="663.762" y="228.5" width="33" height="33" transform="rotate(90 663.762 228.5)" fill="#00E73A" stroke="black"/>
<rect x="701.764" y="228.5" width="33" height="33" transform="rotate(90 701.764 228.5)" fill="#D9D9D9" stroke="black"/>
<rect x="436.75" y="266.5" width="33" height="34" transform="rotate(90 436.75 266.5)" fill="#D9D9D9" stroke="black"/>
<rect x="474.752" y="266.5" width="33" height="34" transform="rotate(90 474.752 266.5)" fill="#00E73A" stroke="black"/>
<rect x="511.754" y="266.5" width="33" height="33" transform="rotate(90 511.754 266.5)" fill="#D9D9D9" stroke="black"/>
<rect x="516.756" y="266.5" width="33.4585" height="33.4585" fill="#AEAEB2" stroke="black"/>
<path d="M533.485 281.237L541.525 273.197L543.517 275.189L535.486 283.221L535.477 283.23L543.517 291.27L541.525 293.262L533.485 285.222L533.476 285.231L525.444 293.262L523.452 291.27L531.492 283.23L523.451 275.189L525.444 273.196L533.485 281.237Z" fill="black" stroke="black" stroke-width="0.025"/>
<rect x="587.758" y="266.5" width="33" height="33" transform="rotate(90 587.758 266.5)" fill="#D9D9D9" stroke="black"/>
<rect x="625.76" y="266.5" width="33" height="33" transform="rotate(90 625.76 266.5)" fill="#D9D9D9" stroke="black"/>
<rect x="663.762" y="266.5" width="33" height="33" transform="rotate(90 663.762 266.5)" fill="#00E73A" stroke="black"/>
<rect x="701.764" y="266.5" width="33" height="33" transform="rotate(90 701.764 266.5)" fill="#D9D9D9" stroke="black"/>
<rect x="436.75" y="304.5" width="33" height="34" transform="rotate(90 436.75 304.5)" fill="#D9D9D9" stroke="black"/>
<rect x="474.752" y="304.5" width="33" height="34" transform="rotate(90 474.752 304.5)" fill="#D9D9D9" stroke="black"/>
<rect x="511.754" y="304.5" width="33" height="33" transform="rotate(90 511.754 304.5)" fill="#00E73A" stroke="black"/>
<rect x="549.756" y="304.5" width="33" height="33" transform="rotate(90 549.756 304.5)" fill="#D9D9D9" stroke="black"/>
<rect x="587.758" y="304.5" width="33" height="33" transform="rotate(90 587.758 304.5)" fill="#D9D9D9" stroke="black"/>
<rect x="625.76" y="304.5" width="33" height="33" transform="rotate(90 625.76 304.5)" fill="#00E73A" stroke="black"/>
<rect x="663.762" y="304.5" width="33" height="33" transform="rotate(90 663.762 304.5)" fill="#D9D9D9" stroke="black"/>
<rect x="701.764" y="304.5" width="33" height="33" transform="rotate(90 701.764 304.5)" fill="#D9D9D9" stroke="black"/>
<rect x="402.75" y="342.5" width="33.4585" height="33.4585" fill="#AEAEB2" stroke="black"/>
<path d="M419.479 357.237L427.52 349.197L429.512 351.189L421.48 359.221L421.472 359.23L429.512 367.27L427.52 369.262L419.479 361.222L419.471 361.231L411.438 369.262L409.446 367.27L417.486 359.23L409.445 351.189L411.438 349.196L419.479 357.237Z" fill="black" stroke="black" stroke-width="0.025"/>
<rect x="440.752" y="342.5" width="33.4585" height="33.4585" fill="#AEAEB2" stroke="black"/>
<path d="M457.481 357.237L465.521 349.197L467.514 351.189L459.482 359.221L459.474 359.23L467.514 367.27L465.521 369.262L457.481 361.222L457.473 361.231L449.44 369.262L447.448 367.27L455.488 359.23L447.447 351.189L449.44 349.196L457.481 357.237Z" fill="black" stroke="black" stroke-width="0.025"/>
<rect x="511.754" y="342.5" width="34" height="33" transform="rotate(90 511.754 342.5)" fill="#D9D9D9" stroke="black"/>
<rect x="549.756" y="342.5" width="34" height="33" transform="rotate(90 549.756 342.5)" fill="#00E73A" stroke="black"/>
<rect x="587.758" y="342.5" width="34" height="33" transform="rotate(90 587.758 342.5)" fill="#00E73A" stroke="black"/>
<rect x="625.76" y="342.5" width="34" height="33" transform="rotate(90 625.76 342.5)" fill="#D9D9D9" stroke="black"/>
<rect x="663.762" y="342.5" width="34" height="33" transform="rotate(90 663.762 342.5)" fill="#D9D9D9" stroke="black"/>
<rect x="701.764" y="342.5" width="34" height="33" transform="rotate(90 701.764 342.5)" fill="#D9D9D9" stroke="black"/>
<rect x="436.75" y="380.5" width="34" height="34" transform="rotate(90 436.75 380.5)" fill="#D9D9D9" stroke="black"/>
<rect x="474.752" y="380.5" width="34" height="34" transform="rotate(90 474.752 380.5)" fill="#D9D9D9" stroke="black"/>
<rect x="511.754" y="380.5" width="34" height="33" transform="rotate(90 511.754 380.5)" fill="#D9D9D9" stroke="black"/>
<rect x="549.756" y="380.5" width="34" height="33" transform="rotate(90 549.756 380.5)" fill="#D9D9D9" stroke="black"/>
<rect x="587.758" y="380.5" width="34" height="33" transform="rotate(90 587.758 380.5)" fill="#D9D9D9" stroke="black"/>
<rect x="592.76" y="380.5" width="33.4585" height="33.4585" fill="#AEAEB2" stroke="black"/>
<path d="M609.489 395.237L617.529 387.197L619.521 389.189L611.49 397.221L611.481 397.23L619.521 405.27L617.529 407.262L609.489 399.222L609.48 399.231L601.448 407.262L599.456 405.27L607.496 397.23L599.455 389.189L601.448 387.196L609.489 395.237Z" fill="black" stroke="black" stroke-width="0.025"/>
<rect x="630.762" y="380.5" width="33.4585" height="33.4585" fill="#AEAEB2" stroke="black"/>
<path d="M647.491 395.237L655.531 387.197L657.523 389.189L649.492 397.221L649.483 397.23L657.523 405.27L655.531 407.262L647.491 399.222L647.482 399.231L639.45 407.262L637.458 405.27L645.498 397.23L637.457 389.189L639.45 387.196L647.491 395.237Z" fill="black" stroke="black" stroke-width="0.025"/>
<rect x="668.764" y="380.5" width="33.4585" height="33.4585" fill="#AEAEB2" stroke="black"/>
<path d="M685.493 395.237L693.533 387.197L695.525 389.189L687.494 397.221L687.485 397.23L695.525 405.27L693.533 407.262L685.493 399.222L685.484 399.231L677.452 407.262L675.46 405.27L683.5 397.23L675.459 389.189L677.452 387.196L685.493 395.237Z" fill="black" stroke="black" stroke-width="0.025"/>
<rect x="436.75" y="418.5" width="34" height="34" transform="rotate(90 436.75 418.5)" fill="#D9D9D9" stroke="black"/>
<rect x="474.752" y="418.5" width="34" height="34" transform="rotate(90 474.752 418.5)" fill="#D9D9D9" stroke="black"/>
<rect x="511.754" y="418.5" width="34" height="33" transform="rotate(90 511.754 418.5)" fill="#D9D9D9" stroke="black"/>
<rect x="549.756" y="418.5" width="34" height="33" transform="rotate(90 549.756 418.5)" fill="#D9D9D9" stroke="black"/>
<rect x="587.758" y="418.5" width="34" height="33" transform="rotate(90 587.758 418.5)" fill="#D9D9D9" stroke="black"/>
<rect x="625.76" y="418.5" width="34" height="33" transform="rotate(90 625.76 418.5)" fill="#D9D9D9" stroke="black"/>
<rect x="663.762" y="418.5" width="34" height="33" transform="rotate(90 663.762 418.5)" fill="#D9D9D9" stroke="black"/>
<rect x="701.764" y="418.5" width="34" height="33" transform="rotate(90 701.764 418.5)" fill="#D9D9D9" stroke="black"/>
<rect x="204.625" y="0.5" width="33.4585" height="33.4585" fill="#AEAEB2" stroke="black"/>
<path d="M221.354 15.2365L229.395 7.19641L231.387 9.1886L223.355 17.2208L223.347 17.2296L231.387 25.2697L229.395 27.2618L221.354 19.2218L221.346 19.2306L213.313 27.2618L211.321 25.2697L219.361 17.2296L211.32 9.1886L213.313 7.19543L221.354 15.2365Z" fill="black" stroke="black" stroke-width="0.025"/>
<rect x="276.656" y="0.5" width="34" height="34" transform="rotate(90 276.656 0.5)" fill="#00E73A" stroke="black"/>
<rect x="314.687" y="0.5" width="34" height="34" transform="rotate(90 314.687 0.5)" fill="#00E73A" stroke="black"/>
<rect x="352.719" y="0.5" width="34" height="34" transform="rotate(90 352.719 0.5)" fill="#D9D9D9" stroke="black"/>
<rect x="161.562" y="38.5" width="34" height="33" transform="rotate(90 161.562 38.5)" fill="#D9D9D9" stroke="black"/>
<rect x="200.594" y="38.5" width="34" height="34" transform="rotate(90 200.594 38.5)" fill="#D9D9D9" stroke="black"/>
<rect x="238.625" y="38.5" width="34" height="34" transform="rotate(90 238.625 38.5)" fill="#00E73A" stroke="black"/>
<rect x="276.656" y="38.5" width="34" height="34" transform="rotate(90 276.656 38.5)" fill="#D9D9D9" stroke="black"/>
<rect x="314.687" y="38.5" width="34" height="34" transform="rotate(90 314.687 38.5)" fill="#00E73A" stroke="black"/>
<rect x="352.719" y="38.5" width="34" height="34" transform="rotate(90 352.719 38.5)" fill="#D9D9D9" stroke="black"/>
<rect x="85.5" y="76.5" width="34" height="33" transform="rotate(90 85.5 76.5)" fill="#D9D9D9" stroke="black"/>
<rect x="123.531" y="76.5" width="34" height="33" transform="rotate(90 123.531 76.5)" fill="#D9D9D9" stroke="black"/>
<rect x="161.562" y="76.5" width="34" height="33" transform="rotate(90 161.562 76.5)" fill="#D9D9D9" stroke="black"/>
<rect x="200.594" y="76.5" width="34" height="34" transform="rotate(90 200.594 76.5)" fill="#D9D9D9" stroke="black"/>
<rect x="238.625" y="76.5" width="34" height="34" transform="rotate(90 238.625 76.5)" fill="#D9D9D9" stroke="black"/>
<rect x="276.656" y="76.5" width="34" height="34" transform="rotate(90 276.656 76.5)" fill="#D9D9D9" stroke="black"/>
<rect x="314.687" y="76.5" width="34" height="34" transform="rotate(90 314.687 76.5)" fill="#00E73A" stroke="black"/>
<rect x="352.719" y="76.5" width="34" height="34" transform="rotate(90 352.719 76.5)" fill="#D9D9D9" stroke="black"/>
<rect x="85.5" y="114.5" width="33" height="33" transform="rotate(90 85.5 114.5)" fill="#D9D9D9" stroke="black"/>
<rect x="123.531" y="114.5" width="33" height="33" transform="rotate(90 123.531 114.5)" fill="#D9D9D9" stroke="black"/>
<rect x="161.562" y="114.5" width="33" height="33" transform="rotate(90 161.562 114.5)" fill="#D9D9D9" stroke="black"/>
<rect x="166.594" y="114.5" width="33.4585" height="33.4585" fill="#AEAEB2" stroke="black"/>
<path d="M183.323 129.237L191.363 121.197L193.355 123.189L185.324 131.221L185.315 131.23L193.355 139.27L191.363 141.262L183.323 133.222L183.314 133.231L175.282 141.262L173.29 139.27L181.33 131.23L173.289 123.189L175.282 121.196L183.323 129.237Z" fill="black" stroke="black" stroke-width="0.025"/>
<rect x="204.625" y="114.5" width="33.4585" height="33.4585" fill="#AEAEB2" stroke="black"/>
<path d="M221.354 129.237L229.395 121.197L231.387 123.189L223.355 131.221L223.347 131.23L231.387 139.27L229.395 141.262L221.354 133.222L221.346 133.231L213.313 141.262L211.321 139.27L219.361 131.23L211.32 123.189L213.313 121.196L221.354 129.237Z" fill="black" stroke="black" stroke-width="0.025"/>
<rect x="276.656" y="114.5" width="33" height="34" transform="rotate(90 276.656 114.5)" fill="#D9D9D9" stroke="black"/>
<rect x="314.687" y="114.5" width="33" height="34" transform="rotate(90 314.687 114.5)" fill="#00E73A" stroke="black"/>
<rect x="352.719" y="114.5" width="33" height="34" transform="rotate(90 352.719 114.5)" fill="#D9D9D9" stroke="black"/>
<rect x="85.5" y="152.5" width="33" height="33" transform="rotate(90 85.5 152.5)" fill="#D9D9D9" stroke="black"/>
<rect x="123.531" y="152.5" width="33" height="33" transform="rotate(90 123.531 152.5)" fill="#D9D9D9" stroke="black"/>
<rect x="161.562" y="152.5" width="33" height="33" transform="rotate(90 161.562 152.5)" fill="#D9D9D9" stroke="black"/>
<rect x="200.594" y="152.5" width="33" height="34" transform="rotate(90 200.594 152.5)" fill="#D9D9D9" stroke="black"/>
<rect x="238.625" y="152.5" width="33" height="34" transform="rotate(90 238.625 152.5)" fill="#D9D9D9" stroke="black"/>
<rect x="276.656" y="152.5" width="33" height="34" transform="rotate(90 276.656 152.5)" fill="#D9D9D9" stroke="black"/>
<rect x="314.687" y="152.5" width="33" height="34" transform="rotate(90 314.687 152.5)" fill="#00E73A" stroke="black"/>
<rect x="352.719" y="152.5" width="33" height="34" transform="rotate(90 352.719 152.5)" fill="#D9D9D9" stroke="black"/>
<rect x="85.5" y="190.5" width="33" height="33" transform="rotate(90 85.5 190.5)" fill="#D9D9D9" stroke="black"/>
<rect x="123.531" y="190.5" width="33" height="33" transform="rotate(90 123.531 190.5)" fill="#D9D9D9" stroke="black"/>
<rect x="161.562" y="190.5" width="33" height="33" transform="rotate(90 161.562 190.5)" fill="#D9D9D9" stroke="black"/>
<rect x="200.594" y="190.5" width="33" height="34" transform="rotate(90 200.594 190.5)" fill="#D9D9D9" stroke="black"/>
<rect x="238.625" y="190.5" width="33" height="34" transform="rotate(90 238.625 190.5)" fill="#D9D9D9" stroke="black"/>
<rect x="276.656" y="190.5" width="33" height="34" transform="rotate(90 276.656 190.5)" fill="#D9D9D9" stroke="black"/>
<rect x="314.687" y="190.5" width="33" height="34" transform="rotate(90 314.687 190.5)" fill="#00E73A" stroke="black"/>
<rect x="352.719" y="190.5" width="33" height="34" transform="rotate(90 352.719 190.5)" fill="#D9D9D9" stroke="black"/>
<rect x="52.5" y="228.5" width="33.4585" height="33.4585" fill="#AEAEB2" stroke="black"/>
<path d="M69.2295 243.237L77.2695 235.197L79.2617 237.189L71.2305 245.221L71.2217 245.23L79.2617 253.27L77.2695 255.262L69.2295 247.222L69.2207 247.231L61.1885 255.262L59.1963 253.27L67.2363 245.23L59.1953 237.189L61.1885 235.196L69.2295 243.237Z" fill="black" stroke="black" stroke-width="0.025"/>
<rect x="90.5312" y="228.5" width="33.4585" height="33.4585" fill="#AEAEB2" stroke="black"/>
<path d="M107.261 243.237L115.301 235.197L117.293 237.189L109.262 245.221L109.253 245.23L117.293 253.27L115.301 255.262L107.261 247.222L107.252 247.231L99.2197 255.262L97.2275 253.27L105.268 245.23L97.2266 237.189L99.2197 235.196L107.261 243.237Z" fill="black" stroke="black" stroke-width="0.025"/>
<rect x="128.562" y="228.5" width="33.4585" height="33.4585" fill="#AEAEB2" stroke="black"/>
<path d="M145.292 243.237L153.332 235.197L155.324 237.189L147.293 245.221L147.284 245.23L155.324 253.27L153.332 255.262L145.292 247.222L145.283 247.231L137.251 255.262L135.259 253.27L143.299 245.23L135.258 237.189L137.251 235.196L145.292 243.237Z" fill="black" stroke="black" stroke-width="0.025"/>
<rect x="166.594" y="228.5" width="33.4585" height="33.4585" fill="#AEAEB2" stroke="black"/>
<path d="M183.323 243.237L191.363 235.197L193.355 237.189L185.324 245.221L185.315 245.23L193.355 253.27L191.363 255.262L183.323 247.222L183.314 247.231L175.282 255.262L173.29 253.27L181.33 245.23L173.289 237.189L175.282 235.196L183.323 243.237Z" fill="black" stroke="black" stroke-width="0.025"/>
<rect x="238.625" y="228.5" width="33" height="34" transform="rotate(90 238.625 228.5)" fill="#D9D9D9" stroke="black"/>
<rect x="276.656" y="228.5" width="33" height="34" transform="rotate(90 276.656 228.5)" fill="#D9D9D9" stroke="black"/>
<rect x="314.687" y="228.5" width="33" height="34" transform="rotate(90 314.687 228.5)" fill="#00E73A" stroke="black"/>
<rect x="352.719" y="228.5" width="33" height="34" transform="rotate(90 352.719 228.5)" fill="#D9D9D9" stroke="black"/>
<rect x="85.5" y="266.5" width="33" height="33" transform="rotate(90 85.5 266.5)" fill="#D9D9D9" stroke="black"/>
<rect x="123.531" y="266.5" width="33" height="33" transform="rotate(90 123.531 266.5)" fill="#D9D9D9" stroke="black"/>
<rect x="161.562" y="266.5" width="33" height="33" transform="rotate(90 161.562 266.5)" fill="#D9D9D9" stroke="black"/>
<rect x="200.594" y="266.5" width="33" height="34" transform="rotate(90 200.594 266.5)" fill="#D9D9D9" stroke="black"/>
<rect x="238.625" y="266.5" width="33" height="34" transform="rotate(90 238.625 266.5)" fill="#D9D9D9" stroke="black"/>
<rect x="276.656" y="266.5" width="33" height="34" transform="rotate(90 276.656 266.5)" fill="#D9D9D9" stroke="black"/>
<rect x="314.687" y="266.5" width="33" height="34" transform="rotate(90 314.687 266.5)" fill="#00E73A" stroke="black"/>
<rect x="352.719" y="266.5" width="33" height="34" transform="rotate(90 352.719 266.5)" fill="#D9D9D9" stroke="black"/>
<rect x="85.5" y="304.5" width="33" height="33" transform="rotate(90 85.5 304.5)" fill="#D9D9D9" stroke="black"/>
<rect x="123.531" y="304.5" width="33" height="33" transform="rotate(90 123.531 304.5)" fill="#D9D9D9" stroke="black"/>
<rect x="161.562" y="304.5" width="33" height="33" transform="rotate(90 161.562 304.5)" fill="#D9D9D9" stroke="black"/>
<rect x="200.594" y="304.5" width="33" height="34" transform="rotate(90 200.594 304.5)" fill="#D9D9D9" stroke="black"/>
<rect x="238.625" y="304.5" width="33" height="34" transform="rotate(90 238.625 304.5)" fill="#D9D9D9" stroke="black"/>
<rect x="276.656" y="304.5" width="33" height="34" transform="rotate(90 276.656 304.5)" fill="#D9D9D9" stroke="black"/>
<rect x="314.687" y="304.5" width="33" height="34" transform="rotate(90 314.687 304.5)" fill="#00E73A" stroke="black"/>
<rect x="352.719" y="304.5" width="33" height="34" transform="rotate(90 352.719 304.5)" fill="#D9D9D9" stroke="black"/>
<rect x="85.5" y="342.5" width="34" height="33" transform="rotate(90 85.5 342.5)" fill="#D9D9D9" stroke="black"/>
<rect x="123.531" y="342.5" width="34" height="33" transform="rotate(90 123.531 342.5)" fill="#D9D9D9" stroke="black"/>
<rect x="161.562" y="342.5" width="34" height="33" transform="rotate(90 161.562 342.5)" fill="#D9D9D9" stroke="black"/>
<rect x="200.594" y="342.5" width="34" height="34" transform="rotate(90 200.594 342.5)" fill="#D9D9D9" stroke="black"/>
<rect x="238.625" y="342.5" width="34" height="34" transform="rotate(90 238.625 342.5)" fill="#00E73A" stroke="black"/>
<rect x="276.656" y="342.5" width="34" height="34" transform="rotate(90 276.656 342.5)" fill="#00E73A" stroke="black"/>
<rect x="314.687" y="342.5" width="34" height="34" transform="rotate(90 314.687 342.5)" fill="#00E73A" stroke="black"/>
<rect x="352.719" y="342.5" width="34" height="34" transform="rotate(90 352.719 342.5)" fill="#00E73A" stroke="black"/>
<rect x="161.562" y="380.5" width="34" height="33" transform="rotate(90 161.562 380.5)" fill="#D9D9D9" stroke="black"/>
<rect x="200.594" y="380.5" width="34" height="34" transform="rotate(90 200.594 380.5)" fill="#D9D9D9" stroke="black"/>
<rect x="238.625" y="380.5" width="34" height="34" transform="rotate(90 238.625 380.5)" fill="#D9D9D9" stroke="black"/>
<rect x="276.656" y="380.5" width="34" height="34" transform="rotate(90 276.656 380.5)" fill="#D9D9D9" stroke="black"/>
<rect x="314.687" y="380.5" width="34" height="34" transform="rotate(90 314.687 380.5)" fill="#D9D9D9" stroke="black"/>
<rect x="318.719" y="380.5" width="33.4585" height="33.4585" fill="#AEAEB2" stroke="black"/>
<path d="M335.448 395.237L343.488 387.197L345.48 389.189L337.449 397.221L337.44 397.23L345.48 405.27L343.488 407.262L335.448 399.222L335.439 399.231L327.407 407.262L325.415 405.27L333.455 397.23L325.414 389.189L327.407 387.196L335.448 395.237Z" fill="black" stroke="black" stroke-width="0.025"/>
<rect x="128.562" y="418.5" width="33.4585" height="33.4585" fill="#AEAEB2" stroke="black"/>
<path d="M145.292 433.236L153.332 425.196L155.324 427.188L147.293 435.221L147.284 435.229L155.324 443.27L153.332 445.262L145.292 437.222L145.283 437.23L137.251 445.262L135.259 443.27L143.299 435.229L135.258 427.188L137.251 425.195L145.292 433.236Z" fill="black" stroke="black" stroke-width="0.025"/>
<rect x="200.594" y="418.5" width="34" height="34" transform="rotate(90 200.594 418.5)" fill="#D9D9D9" stroke="black"/>
<rect x="238.625" y="418.5" width="34" height="34" transform="rotate(90 238.625 418.5)" fill="#D9D9D9" stroke="black"/>
<rect x="276.656" y="418.5" width="34" height="34" transform="rotate(90 276.656 418.5)" fill="#D9D9D9" stroke="black"/>
<rect x="314.687" y="418.5" width="34" height="34" transform="rotate(90 314.687 418.5)" fill="#D9D9D9" stroke="black"/>
<rect x="352.719" y="418.5" width="34" height="34" transform="rotate(90 352.719 418.5)" fill="#D9D9D9" stroke="black"/>
<path d="M4.0285 18.28H7.9005L5.9965 12.952H5.9645L4.0285 18.28ZM5.1645 11.576H6.8445L11.3085 23H9.6285L8.3805 19.56H3.5485L2.2685 23H0.7165L5.1645 11.576Z" fill="black"/>
<path d="M3.29144 54.488H6.33144C7.19544 54.488 7.8141 54.3387 8.18744 54.04C8.57144 53.7307 8.76344 53.272 8.76344 52.664C8.76344 52.2587 8.69944 51.9387 8.57144 51.704C8.44344 51.4693 8.26744 51.288 8.04344 51.16C7.81944 51.032 7.5581 50.952 7.25944 50.92C6.97144 50.8773 6.6621 50.856 6.33144 50.856H3.29144V54.488ZM1.77144 49.576H5.91544C6.16077 49.576 6.4221 49.5813 6.69944 49.592C6.98744 49.592 7.2701 49.608 7.54744 49.64C7.82477 49.6613 8.08077 49.6987 8.31544 49.752C8.56077 49.8053 8.76877 49.8853 8.93944 49.992C9.31277 50.216 9.62744 50.5253 9.88344 50.92C10.1501 51.3147 10.2834 51.8 10.2834 52.376C10.2834 52.984 10.1341 53.512 9.83544 53.96C9.54744 54.3973 9.13144 54.7227 8.58744 54.936V54.968C9.29144 55.1173 9.8301 55.4373 10.2034 55.928C10.5768 56.4187 10.7634 57.016 10.7634 57.72C10.7634 58.136 10.6888 58.5413 10.5394 58.936C10.3901 59.3307 10.1661 59.6827 9.86744 59.992C9.57944 60.2907 9.21677 60.536 8.77944 60.728C8.35277 60.9093 7.85677 61 7.29144 61H1.77144V49.576ZM3.29144 59.72H7.09944C7.77144 59.72 8.2941 59.5387 8.66744 59.176C9.05144 58.8133 9.24344 58.312 9.24344 57.672C9.24344 57.2987 9.1741 56.9893 9.03544 56.744C8.89677 56.4987 8.7101 56.3067 8.47544 56.168C8.25144 56.0187 7.9901 55.9173 7.69144 55.864C7.39277 55.8 7.08344 55.768 6.76344 55.768H3.29144V59.72Z" fill="black"/>
<path d="M9.50656 91.016C9.3359 90.2053 8.95723 89.5973 8.37056 89.192C7.79456 88.7867 7.10656 88.584 6.30656 88.584C5.6239 88.584 5.03723 88.712 4.54656 88.968C4.06656 89.224 3.66656 89.5707 3.34656 90.008C3.03723 90.4347 2.8079 90.9253 2.65856 91.48C2.50923 92.0347 2.43456 92.6107 2.43456 93.208C2.43456 93.8587 2.50923 94.4773 2.65856 95.064C2.8079 95.64 3.03723 96.1467 3.34656 96.584C3.66656 97.0107 4.0719 97.352 4.56256 97.608C5.05323 97.864 5.6399 97.992 6.32256 97.992C6.8239 97.992 7.26656 97.912 7.65056 97.752C8.04523 97.5813 8.38123 97.352 8.65856 97.064C8.94656 96.7653 9.17056 96.4133 9.33056 96.008C9.49056 95.6027 9.58656 95.1653 9.61856 94.696H11.1386C10.9892 96.136 10.4932 97.256 9.65056 98.056C8.8079 98.856 7.6559 99.256 6.19456 99.256C5.30923 99.256 4.5359 99.1067 3.87456 98.808C3.21323 98.4987 2.6639 98.0773 2.22656 97.544C1.78923 97.0107 1.45856 96.3813 1.23456 95.656C1.02123 94.9307 0.914563 94.152 0.914563 93.32C0.914563 92.488 1.0319 91.7093 1.26656 90.984C1.50123 90.248 1.84256 89.608 2.29056 89.064C2.74923 88.52 3.31456 88.0933 3.98656 87.784C4.66923 87.464 5.4479 87.304 6.32256 87.304C6.9199 87.304 7.48523 87.384 8.01856 87.544C8.5519 87.704 9.02656 87.9387 9.44256 88.248C9.85856 88.5573 10.2052 88.9467 10.4826 89.416C10.7599 89.8747 10.9412 90.408 11.0266 91.016H9.50656Z" fill="black"/>
<path d="M3.13519 135.72H5.66319C5.83385 135.72 6.04719 135.709 6.30319 135.688C6.55919 135.656 6.83119 135.592 7.11919 135.496C7.40719 135.389 7.68985 135.24 7.96719 135.048C8.25519 134.856 8.51119 134.595 8.73519 134.264C8.95919 133.933 9.14052 133.523 9.27919 133.032C9.42852 132.531 9.50319 131.928 9.50319 131.224C9.50319 130.541 9.43385 129.933 9.29519 129.4C9.16719 128.856 8.94852 128.397 8.63919 128.024C8.34052 127.64 7.95119 127.352 7.47119 127.16C6.99119 126.957 6.39919 126.856 5.69519 126.856H3.13519V135.72ZM1.61519 125.576H5.53519C7.29519 125.576 8.64985 126.024 9.59919 126.92C10.5485 127.816 11.0232 129.181 11.0232 131.016C11.0232 131.976 10.9165 132.829 10.7032 133.576C10.4899 134.312 10.1592 134.936 9.71119 135.448C9.26319 135.949 8.69252 136.333 7.99919 136.6C7.30585 136.867 6.48452 137 5.53519 137H1.61519V125.576Z" fill="black"/>
<path d="M2.35738 163.576H10.2454V164.856H3.87738V168.488H9.81338V169.768H3.87738V173.72H10.2934V175H2.35738V163.576Z" fill="black"/>
<path d="M2.65425 201.576H10.1583V202.856H4.17425V206.488H9.42225V207.768H4.17425V213H2.65425V201.576Z" fill="black"/>
<path d="M9.72169 249.576C9.27369 250.173 8.71902 250.605 8.05769 250.872C7.39635 251.128 6.72969 251.256 6.05769 251.256C5.20435 251.256 4.44169 251.101 3.76969 250.792C3.09769 250.472 2.52702 250.045 2.05769 249.512C1.58835 248.979 1.23102 248.365 0.985687 247.672C0.740354 246.979 0.617688 246.259 0.617688 245.512C0.617688 244.68 0.729688 243.891 0.953688 243.144C1.18835 242.387 1.52969 241.725 1.97769 241.16C2.43635 240.595 3.00169 240.147 3.67369 239.816C4.35635 239.475 5.15102 239.304 6.05769 239.304C6.67635 239.304 7.25769 239.379 7.80169 239.528C8.35635 239.667 8.84702 239.891 9.27369 240.2C9.71102 240.509 10.0737 240.904 10.3617 241.384C10.6604 241.853 10.863 242.424 10.9697 243.096H9.44969C9.37502 242.659 9.23635 242.285 9.03369 241.976C8.83102 241.656 8.58035 241.395 8.28169 241.192C7.98302 240.989 7.64169 240.84 7.25769 240.744C6.88435 240.637 6.48435 240.584 6.05769 240.584C5.36435 240.584 4.76702 240.723 4.26569 241C3.77502 241.277 3.36969 241.645 3.04969 242.104C2.74035 242.552 2.51102 243.069 2.36169 243.656C2.21235 244.232 2.13769 244.824 2.13769 245.432C2.13769 246.029 2.22302 246.605 2.39369 247.16C2.56435 247.704 2.81502 248.189 3.14569 248.616C3.47635 249.032 3.88169 249.368 4.36169 249.624C4.85235 249.869 5.41769 249.992 6.05769 249.992C6.65502 249.992 7.18302 249.896 7.64169 249.704C8.10035 249.512 8.48435 249.251 8.79369 248.92C9.11369 248.579 9.35369 248.184 9.51369 247.736C9.67369 247.277 9.74302 246.787 9.72169 246.264H6.07369V244.984H11.0817V251H10.1217L9.72169 249.576Z" fill="black"/>
<path d="M1.47456 277.576H2.99456V282.488H9.01056V277.576H10.5306V289H9.01056V283.768H2.99456V289H1.47456V277.576Z" fill="black"/>
<path d="M5.24169 315.576H6.76169V327H5.24169V315.576Z" fill="black"/>
<path d="M8.90756 362.152C8.90756 362.536 8.8489 362.915 8.73156 363.288C8.6249 363.661 8.43823 363.997 8.17156 364.296C7.91556 364.584 7.5689 364.819 7.13156 365C6.7049 365.171 6.17156 365.256 5.53156 365.256C4.4649 365.256 3.64356 364.979 3.06756 364.424C2.49156 363.859 2.20356 363.032 2.20356 361.944V361.24H3.72356V361.72C3.72356 362.051 3.75023 362.355 3.80356 362.632C3.8569 362.909 3.94756 363.149 4.07556 363.352C4.21423 363.555 4.4009 363.715 4.63556 363.832C4.8809 363.939 5.19023 363.992 5.56356 363.992C6.2569 363.992 6.73156 363.805 6.98756 363.432C7.25423 363.059 7.38756 362.557 7.38756 361.928V353.576H8.90756V362.152Z" fill="black"/>
<path d="M1.91206 391.576H3.43206V397.272L9.22406 391.576H11.1921L6.37606 396.184L11.3841 403H9.46406L5.33606 397.224L3.43206 399V403H1.91206V391.576Z" fill="black"/>
<path d="M2.80269 429.576H4.32269V439.72H10.3707V441H2.80269V429.576Z" fill="black"/>
</svg>
